<svg xmlns="http://www.w3.org/2000/svg" xmlns:xlink="http://www.w3.org/1999/xlink" viewBox="0 0 457.45 489.96"><defs><style>.cls-1{fill:url(#linear-gradient);}.cls-2{fill:url(#Orange_Yellow);}.cls-3{fill:#fff;}.cls-4{fill:#2baf8a;}</style><linearGradient id="linear-gradient" x1="-65.24" y1="496.67" x2="128.3" y2="206.22" gradientUnits="userSpaceOnUse"><stop offset="0" stop-color="#fff33b"/><stop offset="0.06" stop-color="#fee72e"/><stop offset="0.18" stop-color="#fed51b"/><stop offset="0.3" stop-color="#fdca10"/><stop offset="0.43" stop-color="#fdc70c"/><stop offset="0.82" stop-color="#f3903f"/><stop offset="0.89" stop-color="#ed683c"/><stop offset="1" stop-color="#e93e3a"/></linearGradient><linearGradient id="Orange_Yellow" x1="38.88" y1="307.47" x2="364.05" y2="-31.72" gradientUnits="userSpaceOnUse"><stop offset="0" stop-color="#fff33b"/><stop offset="0.04" stop-color="#fee72e"/><stop offset="0.12" stop-color="#fed51b"/><stop offset="0.2" stop-color="#fdca10"/><stop offset="0.28" stop-color="#fdc70c"/><stop offset="0.67" stop-color="#f3903f"/><stop offset="0.89" stop-color="#ed683c"/><stop offset="1" stop-color="#e93e3a"/></linearGradient></defs><title>Asset 1</title><g id="Layer_2" data-name="Layer 2"><g id="Layer_1-2" data-name="Layer 1"><path class="cls-1" d="M204,335.6,95.23,325.93V170.13a47.62,47.62,0,0,0-95.23,0V442.35a47.62,47.62,0,0,0,95.23,0V415.63C103.81,374.5,127.72,337.33,204,335.6Z"/><circle class="cls-2" cx="162.23" cy="178.81" r="162.23"/><circle class="cls-3" cx="162.23" cy="178.81" r="104.23"/><circle class="cls-4" cx="425.91" cy="31.53" r="31.53"/><circle class="cls-4" cx="380.34" cy="66.06" r="18.69"/><path class="cls-4" d="M359,80.83a23.46,23.46,0,0,0-32.9-3.49l-142.32,115-48.6-48.59a23.39,23.39,0,1,0-33.08,33.08l60.73,60.72a23.1,23.1,0,0,0,13.73,6.56,23.39,23.39,0,0,0,22.34-3.83L355.46,113.72A23.45,23.45,0,0,0,359,80.83Z"/><path class="cls-3" d="M184.3,248.5a27,27,0,0,1-8.47-1.37,26.09,26.09,0,0,1-15.21-7.39L99.9,179a26.44,26.44,0,0,1,37.39-37.4L184,188.28,324.13,75a26.44,26.44,0,1,1,33.25,41.12L200.76,242.68A26.08,26.08,0,0,1,184.3,248.5ZM118.59,140a20.34,20.34,0,0,0-14.38,34.7l60.72,60.73a20,20,0,0,0,11.94,5.68l.63.15a20.26,20.26,0,0,0,19.43-3.32L353.55,111.36a20.43,20.43,0,0,0,3-28.62h0a20.42,20.42,0,0,0-28.61-3L183.51,196.47,133,145.93A20.24,20.24,0,0,0,118.59,140Z"/></g></g></svg>